<?xml version="1.0" encoding="iso-8859-1"?>
<!-- Generator: Adobe Illustrator 19.2.1, SVG Export Plug-In . SVG Version: 6.00 Build 0)  -->
<svg version="1.1"  xmlns="http://www.w3.org/2000/svg" xmlns:xlink="http://www.w3.org/1999/xlink" x="0px" y="0px"
	 viewBox="0 0 40 40" style="enable-background:new 0 0 40 40;" xml:space="preserve">
<g>
	<polygon style="fill:#97AEC7;" points="1.182,16.333 20,7.552 38.818,16.333 20,25.115 	"/>
	<path style="fill:#66798F;" d="M20,8.104l17.635,8.23L20,24.563l-17.635-8.23L20,8.104 M20,7L0,16.333l20,9.333l20-9.333L20,7L20,7
		z"/>
</g>
<g>
	<path style="fill:#B0C1D4;" d="M9.5,24.5V17c0-1.02,4.09-2.5,10.5-2.5s10.5,1.48,10.5,2.5v7.5H9.5z"/>
	<g>
		<path style="fill:#66798F;" d="M20,15c6.043,0,9.727,1.33,10,2v7H9.999l-0.005-6.958C10.273,16.33,13.957,15,20,15 M20,14
			c-6.075,0-11,1.343-11,3c0,0.547,0,7.453,0,8h22c0-0.547,0-7.453,0-8C31,15.343,26.075,14,20,14L20,14z"/>
	</g>
</g>
<path style="fill:#A16A4A;" d="M5,30H4c0,0,0-14.441,0-15.501c0-0.876,1-0.912,1-0.465C5,14.53,5,30,5,30z"/>
<g>
	<path style="fill:#FFC49C;" d="M4.5,35.564c-0.907-1.827-2-4.282-2-5.064c0-1.103,0.897-2,2-2s2,0.897,2,2
		C6.5,31.282,5.407,33.737,4.5,35.564z"/>
	<path style="fill:#A16A4A;" d="M4.5,29C5.327,29,6,29.673,6,30.5c0,0.519-0.68,2.195-1.5,3.922C3.68,32.695,3,31.02,3,30.5
		C3,29.673,3.673,29,4.5,29 M4.5,28C3.119,28,2,29.119,2,30.5s2.5,6.167,2.5,6.167S7,31.881,7,30.5S5.881,28,4.5,28L4.5,28z"/>
</g>
<g>
	<ellipse style="fill:#66798F;" cx="20" cy="25" rx="11" ry="3"/>
</g>
</svg>
