<?xml version="1.0" encoding="iso-8859-1"?>
<!-- Generator: Adobe Illustrator 21.0.0, SVG Export Plug-In . SVG Version: 6.00 Build 0)  -->
<svg version="1.1"  xmlns="http://www.w3.org/2000/svg" xmlns:xlink="http://www.w3.org/1999/xlink" x="0px" y="0px"
	 viewBox="0 0 40 40" style="enable-background:new 0 0 40 40;" xml:space="preserve">
<g>
	<rect x="6.5" y="2.5" style="fill:#FFEEA3;" width="27" height="35"/>
	<g>
		<path style="fill:#BA9B48;" d="M33,3v34H7V3H33 M34,2H6v36h28V2L34,2z"/>
	</g>
</g>
<g>
	<path style="fill:#FFFAE0;" d="M20,30.5c-1.93,0-3.5-1.57-3.5-3.5c0-0.55,0.354-2.491,0.973-5.325
		c0.151-0.692,0.753-1.175,1.465-1.175h2.125c0.712,0,1.313,0.483,1.465,1.175C23.146,24.509,23.5,26.45,23.5,27
		C23.5,28.93,21.93,30.5,20,30.5z"/>
	<g>
		<path style="fill:#BA9B48;" d="M21.063,21c0.474,0,0.876,0.321,0.976,0.782C22.931,25.874,23,26.81,23,27c0,1.654-1.346,3-3,3
			s-3-1.346-3-3c0-0.19,0.069-1.126,0.961-5.218c0.1-0.46,0.502-0.782,0.976-0.782H21.063 M21.063,20h-2.125
			c-0.941,0-1.753,0.65-1.953,1.569C16.589,23.381,16,26.216,16,27c0,2.209,1.791,4,4,4s4-1.791,4-4
			c0-0.784-0.589-3.619-0.984-5.431C22.816,20.65,22.004,20,21.063,20L21.063,20z"/>
	</g>
</g>
<g>
	<circle style="fill:#BA9B48;" cx="20" cy="27" r="1.5"/>
</g>
<g>
	<polygon style="fill:#BA9B48;" points="22.5,19 20,19 19,18 22.5,18 	"/>
</g>
<g>
	<circle style="fill:#BA9B48;" cx="22.5" cy="18.5" r="0.5"/>
</g>
<g>
	<polygon style="fill:#BA9B48;" points="17.5,20 20,20 21,19 17.5,19 	"/>
</g>
<g>
	<circle style="fill:#BA9B48;" cx="17.5" cy="19.5" r="0.5"/>
</g>
<g>
	<polygon style="fill:#BA9B48;" points="22.5,17 20,17 19,16 22.5,16 	"/>
</g>
<g>
	<circle style="fill:#BA9B48;" cx="22.5" cy="16.5" r="0.5"/>
</g>
<g>
	<polygon style="fill:#BA9B48;" points="17.5,18 20,18 21,17 17.5,17 	"/>
</g>
<g>
	<circle style="fill:#BA9B48;" cx="17.5" cy="17.5" r="0.5"/>
</g>
<g>
	<polygon style="fill:#BA9B48;" points="22.5,15 20,15 19,14 22.5,14 	"/>
</g>
<g>
	<circle style="fill:#BA9B48;" cx="22.5" cy="14.5" r="0.5"/>
</g>
<g>
	<polygon style="fill:#BA9B48;" points="17.5,16 20,16 21,15 17.5,15 	"/>
</g>
<g>
	<circle style="fill:#BA9B48;" cx="17.5" cy="15.5" r="0.5"/>
</g>
<g>
	<polygon style="fill:#BA9B48;" points="22.5,13 20,13 19,12 22.5,12 	"/>
</g>
<g>
	<circle style="fill:#BA9B48;" cx="22.5" cy="12.5" r="0.5"/>
</g>
<g>
	<polygon style="fill:#BA9B48;" points="17.5,14 20,14 21,13 17.5,13 	"/>
</g>
<g>
	<circle style="fill:#BA9B48;" cx="17.5" cy="13.5" r="0.5"/>
</g>
<g>
	<polygon style="fill:#BA9B48;" points="22.5,11 20,11 19,10 22.5,10 	"/>
</g>
<g>
	<circle style="fill:#BA9B48;" cx="22.5" cy="10.5" r="0.5"/>
</g>
<g>
	<polygon style="fill:#BA9B48;" points="17.5,12 20,12 21,11 17.5,11 	"/>
</g>
<g>
	<circle style="fill:#BA9B48;" cx="17.5" cy="11.5" r="0.5"/>
</g>
<g>
	<polygon style="fill:#BA9B48;" points="22.5,9 20,9 19,8 22.5,8 	"/>
</g>
<g>
	<circle style="fill:#BA9B48;" cx="22.5" cy="8.5" r="0.5"/>
</g>
<g>
	<polygon style="fill:#BA9B48;" points="17.5,10 20,10 21,9 17.5,9 	"/>
</g>
<g>
	<circle style="fill:#BA9B48;" cx="17.5" cy="9.5" r="0.5"/>
</g>
<g>
	<polygon style="fill:#BA9B48;" points="22.5,7 20,7 19,6 22.5,6 	"/>
</g>
<g>
	<circle style="fill:#BA9B48;" cx="22.5" cy="6.5" r="0.5"/>
</g>
<g>
	<polygon style="fill:#BA9B48;" points="17.5,8 20,8 21,7 17.5,7 	"/>
</g>
<g>
	<circle style="fill:#BA9B48;" cx="17.5" cy="7.5" r="0.5"/>
</g>
<g>
	<polygon style="fill:#BA9B48;" points="22.5,5 20,5 19,4 22.5,4 	"/>
</g>
<g>
	<circle style="fill:#BA9B48;" cx="22.5" cy="4.5" r="0.5"/>
</g>
<g>
	<polygon style="fill:#BA9B48;" points="17.5,6 20,6 21,5 17.5,5 	"/>
</g>
<g>
	<circle style="fill:#BA9B48;" cx="17.5" cy="5.5" r="0.5"/>
</g>
<g>
	<polygon style="fill:#BA9B48;" points="17.5,4 20,4 21,3 17.5,3 	"/>
</g>
<g>
	<circle style="fill:#BA9B48;" cx="17.5" cy="3.5" r="0.5"/>
</g>
</svg>
