<?xml version="1.0" encoding="iso-8859-1"?>
<!-- Generator: Adobe Illustrator 21.1.0, SVG Export Plug-In . SVG Version: 6.00 Build 0)  -->
<svg xmlns="http://www.w3.org/2000/svg" xmlns:xlink="http://www.w3.org/1999/xlink" version="1.1" id="Layer_1" x="0px" y="0px" viewBox="0 0 64 64" style="enable-background:new 0 0 64 64;" xml:space="preserve">
<g>
	<path style="fill:#CDA1A7;" d="M7,9H5c-1.105,0-2,0.895-2,2v40c0,1.105,0.895,2,2,2h21.22c1.046,0,1.958,0.712,2.212,1.727l0,0.001   C28.766,56.063,29.966,57,31.342,57h3.315c1.377,0,2.577-0.937,2.91-2.272l0-0.001C37.822,53.712,38.734,53,39.78,53H61   c1.105,0,2-0.895,2-2V11c0-1.105-0.895-2-2-2h-2H7z"/>
	<path style="fill:#FAEFDE;" d="M33,53L33,53c0-2.209-1.791-4-4-4H9c-1.105,0-2-0.895-2-2V9c0-1.105,0.895-2,2-2h20   c2.209,0,4,1.791,4,4v2.833V53z"/>
	<path style="fill:#FAEFDE;" d="M33,37V11c0-2.209,1.791-4,4-4h20c1.105,0,2,0.895,2,2v38c0,1.105-0.895,2-2,2H37   c-2.209,0-4,1.791-4,4l0,0V37z"/>
	<path style="fill:#FAEFDE;" d="M33,52l-2.333-3H7V7h22c2.209,0,4,1.791,4,4V52z"/>
	<path style="fill:#FAEFDE;" d="M33,52l2.333-3H59V7H37c-2.209,0-4,1.791-4,4V52z"/>
	<path style="fill:#EFD8BE;" d="M39,7h-2c-2.209,0-4,1.791-4,4v41l2.333-3H39V7z"/>
	<rect x="7" y="7" style="fill:#FFF7F0;" width="5" height="42"/>
	<g>
		<path style="fill:#8D6C9F;" d="M61,8h-1.184C59.402,6.839,58.302,6,57,6H37c-1.641,0-3.088,0.806-4,2.031    C32.088,6.806,30.641,6,29,6H9C7.698,6,6.598,6.839,6.184,8H5c-1.654,0-3,1.346-3,3v40c0,1.654,1.346,3,3,3h21.22    c0.589,0,1.1,0.398,1.242,0.97c0.445,1.784,2.041,3.03,3.88,3.03h3.315c1.839,0,3.435-1.246,3.881-3.031    C38.681,54.398,39.191,54,39.78,54H61c1.654,0,3-1.346,3-3V11C64,9.346,62.654,8,61,8z M9,8h20c1.654,0,3,1.346,3,3v2.833V37    c0,0.553,0.448,1,1,1s1-0.447,1-1V13.833V11c0-1.654,1.346-3,3-3h20c0.551,0,1,0.448,1,1v38c0,0.552-0.449,1-1,1H37    c-1.641,0-3.088,0.806-4,2.031C32.088,48.806,30.641,48,29,48H9c-0.551,0-1-0.448-1-1V9C8,8.448,8.449,8,9,8z M62,51    c0,0.552-0.449,1-1,1H39.78c-1.508,0-2.817,1.021-3.183,2.485C36.375,55.377,35.577,56,34.658,56h-3.315    c-0.919,0-1.717-0.623-1.94-1.516C29.037,53.021,27.728,52,26.22,52H5c-0.551,0-1-0.448-1-1V11c0-0.552,0.449-1,1-1h1v37    c0,1.654,1.346,3,3,3h20c1.654,0,3,1.346,3,3c0,0.553,0.448,1,1,1s1-0.447,1-1c0-1.654,1.346-3,3-3h20c1.654,0,3-1.346,3-3V10h1    c0.551,0,1,0.448,1,1V51z"/>
		<path style="fill:#8D6C9F;" d="M33,46c0.552,0,1-0.447,1-1v-4c0-0.553-0.448-1-1-1s-1,0.447-1,1v4C32,45.553,32.448,46,33,46z"/>
		<path style="fill:#8D6C9F;" d="M12,16c0.552,0,1-0.447,1-1v-2c0-0.553-0.448-1-1-1s-1,0.447-1,1v2C11,15.553,11.448,16,12,16z"/>
		<path style="fill:#8D6C9F;" d="M17,16c0.552,0,1-0.447,1-1v-2c0-0.553-0.448-1-1-1s-1,0.447-1,1v2C16,15.553,16.448,16,17,16z"/>
		<path style="fill:#8D6C9F;" d="M22,16c0.552,0,1-0.447,1-1v-2c0-0.553-0.448-1-1-1s-1,0.447-1,1v2C21,15.553,21.448,16,22,16z"/>
		<path style="fill:#8D6C9F;" d="M27,16c0.552,0,1-0.447,1-1v-2c0-0.553-0.448-1-1-1s-1,0.447-1,1v2C26,15.553,26.448,16,27,16z"/>
		<path style="fill:#8D6C9F;" d="M39,16c0.552,0,1-0.447,1-1v-2c0-0.553-0.448-1-1-1s-1,0.447-1,1v2C38,15.553,38.448,16,39,16z"/>
		<path style="fill:#8D6C9F;" d="M44,16c0.552,0,1-0.447,1-1v-2c0-0.553-0.448-1-1-1s-1,0.447-1,1v2C43,15.553,43.448,16,44,16z"/>
		<path style="fill:#8D6C9F;" d="M49,16c0.552,0,1-0.447,1-1v-2c0-0.553-0.448-1-1-1s-1,0.447-1,1v2C48,15.553,48.448,16,49,16z"/>
		<path style="fill:#8D6C9F;" d="M54,16c0.552,0,1-0.447,1-1v-2c0-0.553-0.448-1-1-1s-1,0.447-1,1v2C53,15.553,53.448,16,54,16z"/>
	</g>
</g>
</svg>
