<?xml version="1.0" encoding="iso-8859-1"?>
<!-- Generator: Adobe Illustrator 19.2.0, SVG Export Plug-In . SVG Version: 6.00 Build 0)  -->
<svg version="1.1" id="Layer_1" xmlns="http://www.w3.org/2000/svg" xmlns:xlink="http://www.w3.org/1999/xlink" x="0px" y="0px"
	 viewBox="0 0 40 40" style="enable-background:new 0 0 40 40;" xml:space="preserve">
<g>
	<g>
		<path style="fill:#E1EBF2;" d="M28.302,39.5c-0.052,0-0.104-0.008-0.154-0.025L7.251,32.594c-0.126-0.041-0.229-0.13-0.289-0.25
			c-0.06-0.12-0.071-0.255-0.029-0.381l9.696-29.445c0.066-0.202,0.263-0.343,0.477-0.343c0.052,0,0.104,0.008,0.154,0.025
			l20.896,6.881c0.126,0.041,0.229,0.13,0.289,0.25c0.061,0.12,0.071,0.255,0.029,0.381l-9.696,29.445
			C28.712,39.359,28.516,39.5,28.302,39.5z"/>
		<g>
			<path style="fill:#788B9C;" d="M17.107,2.675L17.107,2.675L38,9.556L28.304,39L7.408,32.119L17.107,2.675 M17.106,1.675
				c-0.42,0-0.814,0.268-0.952,0.687L6.458,31.806c-0.172,0.522,0.115,1.091,0.637,1.263l20.896,6.881
				c0.103,0.034,0.208,0.05,0.311,0.05c0.42,0,0.814-0.268,0.952-0.687L38.95,9.868c0.172-0.522-0.115-1.091-0.637-1.263
				L17.417,1.725C17.314,1.691,17.209,1.675,17.106,1.675L17.106,1.675z"/>
		</g>
	</g>
	<g>
		<path style="fill:#C74343;" d="M34,15.623l-0.864-0.285l-0.029-1.349l-1.868-0.615l-0.809,1.074l-0.861-0.284L32.911,10
			l0.888,0.292L34,15.623z M33.109,13.277l-0.035-2.111c0-0.068,0.012-0.175,0.035-0.319l-0.013-0.004
			c-0.061,0.119-0.116,0.211-0.164,0.276l-1.276,1.68L33.109,13.277z"/>
	</g>
	<g>
		<path style="fill:#C74343;" d="M11.64,26.197l0.864,0.285l0.029,1.349l1.868,0.615l0.809-1.074l0.861,0.284l-3.342,4.164
			l-0.888-0.292L11.64,26.197z M12.531,28.542l0.035,2.111c0,0.068-0.012,0.175-0.035,0.319l0.013,0.004
			c0.061-0.119,0.116-0.211,0.164-0.276l1.276-1.68L12.531,28.542z"/>
	</g>
	<g>
		<path style="fill:#F78F8F;" d="M21.993,26.42c-1.351-2.203-4.097-7.357-3.4-9.489c0.447-1.368,1.667-2.288,3.035-2.288
			c0.31,0,0.616,0.049,0.912,0.146c0.845,0.276,1.156,0.955,1.587,1.893c0.081,0.176,0.164,0.356,0.252,0.537l0.278,0.57
			l0.489-0.404c0.695-0.574,1.431-0.864,2.188-0.864c0.341,0,0.692,0.059,1.046,0.176c1.616,0.536,2.478,2.356,1.921,4.059
			C29.314,23.777,23.51,25.909,21.993,26.42z"/>
		<path style="fill:#C74343;" d="M21.627,15.144L21.627,15.144c0.257,0,0.511,0.041,0.757,0.121c0.61,0.199,0.849,0.668,1.288,1.626
			c0.083,0.18,0.167,0.363,0.257,0.548l0.557,1.14l0.979-0.808c0.603-0.498,1.232-0.75,1.869-0.75c0.287,0,0.586,0.051,0.889,0.151
			c1.355,0.449,2.075,1.988,1.603,3.429c-0.781,2.39-5.242,4.389-7.614,5.219c-1.732-2.886-3.67-7.126-3.144-8.734
			C19.448,15.924,20.476,15.144,21.627,15.144 M21.627,14.144c-1.535,0-2.985,1.028-3.51,2.632
			c-0.969,2.964,3.658,10.241,3.658,10.241s7.775-2.353,9.001-6.104c0.646-1.975-0.36-4.066-2.239-4.689
			c-0.42-0.139-0.821-0.202-1.203-0.202c-0.961,0-1.801,0.397-2.506,0.979c-0.57-1.168-0.891-2.28-2.133-2.686
			C22.341,14.199,21.982,14.144,21.627,14.144L21.627,14.144z"/>
	</g>
</g>
<g>
	<g>
		<path style="fill:#FFFFFF;" d="M2,32.5c-0.276,0-0.5-0.224-0.5-0.5V1c0-0.276,0.224-0.5,0.5-0.5h22c0.276,0,0.5,0.224,0.5,0.5v31
			c0,0.276-0.224,0.5-0.5,0.5H2z"/>
		<g>
			<path style="fill:#788B9C;" d="M24,1v31H2V1H24 M24,0H2C1.45,0,1,0.45,1,1v31c0,0.55,0.45,1,1,1h22c0.55,0,1-0.45,1-1V1
				C25,0.45,24.55,0,24,0L24,0z"/>
		</g>
	</g>
	<g>
		<path style="fill:#788B9C;" d="M21.833,8h-0.91l-0.45-1.273h-1.967L18.074,8h-0.907l1.872-5h0.934L21.833,8z M20.253,6.051
			l-0.694-1.994c-0.021-0.065-0.043-0.17-0.066-0.314h-0.014c-0.021,0.132-0.044,0.237-0.07,0.314l-0.687,1.994H20.253z"/>
	</g>
	<g>
		<path style="fill:#788B9C;" d="M4.167,25h0.91l0.45,1.273h1.967L7.926,25h0.907L6.96,30H6.026L4.167,25z M5.747,26.949
			l0.694,1.994c0.021,0.065,0.043,0.17,0.066,0.314h0.014c0.021-0.132,0.044-0.237,0.07-0.314l0.687-1.994H5.747z"/>
	</g>
	<g>
		<path style="fill:#B6C9D6;" d="M9.792,20.5c-1.638,0-3.292-0.899-3.292-2.907c0-3.233,5.229-7.096,6.5-7.986
			c1.271,0.892,6.5,4.756,6.5,7.986c0,2.008-1.653,2.907-3.292,2.907H9.792z"/>
		<path style="fill:#788B9C;" d="M13,10.214c2.076,1.482,6,4.812,6,7.378C19,19.256,17.598,20,16.208,20H14.4h-2.8H9.792
			C8.402,20,7,19.256,7,17.593C7,15.031,10.924,11.698,13,10.214 M13,9c0,0-7,4.619-7,8.593C6,19.72,7.698,21,9.792,21
			c0.754,0,1.117,0,1.808,0h2.8c0.692,0,1.054,0,1.808,0C18.302,21,20,19.72,20,17.593C20,13.619,13,9,13,9L13,9z"/>
	</g>
	<g>
		<path style="fill:#B6C9D6;" d="M12.05,22.5c0.207-0.301,0.341-0.646,0.405-1h1.09c0.064,0.354,0.198,0.699,0.405,1H12.05z"/>
		<path style="fill:#788B9C;" d="M14,21h-2c0,1.029-0.651,2-2,2h3h3C14.651,23,14,22.029,14,21L14,21z"/>
	</g>
	<g>
		<rect x="10" y="23" style="fill:#B6C9D6;" width="6" height="1"/>
		<polygon style="fill:#788B9C;" points="16,23 10,23 10,24 16,24 16,23 		"/>
	</g>
</g>
</svg>
