<?xml version="1.0" encoding="iso-8859-1"?>
<!-- Generator: Adobe Illustrator 21.0.2, SVG Export Plug-In . SVG Version: 6.00 Build 0)  -->
<svg xmlns="http://www.w3.org/2000/svg" xmlns:xlink="http://www.w3.org/1999/xlink" version="1.1" id="Layer_1" x="0px" y="0px" viewBox="0 0 40 40" style="enable-background:new 0 0 40 40;" xml:space="preserve">
<g>
	<rect x="5.5" y="4.5" style="fill:#98CCFD;" width="29" height="32"/>
	<g>
		<path style="fill:#4788C7;" d="M34,5v31H6V5H34 M35,4H5v33h30V4L35,4z"/>
	</g>
</g>
<g>
	<g>
		<path style="fill:#4788C7;" d="M38,5v31h-3V5H38 M39,4h-5v33h5V4L39,4z"/>
	</g>
</g>
<g>
	<g>
		<path style="fill:#4788C7;" d="M5,5v31H2V5H5 M6,4H1v33h5V4L6,4z"/>
	</g>
</g>
<g>
	<polygon style="fill:#FFFFFF;" points="16,14 16,27 26,20.5  "/>
</g>
<rect x="34" y="8" style="fill:#4788C7;" width="5" height="1"/>
<rect x="34" y="12" style="fill:#4788C7;" width="5" height="1"/>
<rect x="34" y="16" style="fill:#4788C7;" width="5" height="1"/>
<rect x="34" y="20" style="fill:#4788C7;" width="5" height="1"/>
<rect x="34" y="24" style="fill:#4788C7;" width="5" height="1"/>
<rect x="34" y="28" style="fill:#4788C7;" width="4" height="1"/>
<rect x="34" y="32" style="fill:#4788C7;" width="5" height="1"/>
<rect x="1" y="8" style="fill:#4788C7;" width="5" height="1"/>
<rect x="1" y="12" style="fill:#4788C7;" width="5" height="1"/>
<rect x="1" y="16" style="fill:#4788C7;" width="5" height="1"/>
<rect x="1" y="20" style="fill:#4788C7;" width="5" height="1"/>
<rect x="1" y="24" style="fill:#4788C7;" width="5" height="1"/>
<rect x="1" y="28" style="fill:#4788C7;" width="4" height="1"/>
<rect x="1" y="32" style="fill:#4788C7;" width="5" height="1"/>
</svg>
